<svg t="1701756564835" class="icon" viewBox="0 0 1024 1024" version="1.1" xmlns="http://www.w3.org/2000/svg" p-id="4319" width="32" height="32"><path d="M927.371754 389.805984c-14.214746-30.28577-40.11872-45.295626-73.722048-45.693692-43.698245-0.399089-162.03542-0.13303-205.732641-0.13303-73.187883 0-146.370649 0-221.948975 0 11.948123-10.491958 22.309098-19.790742 33.072233-28.559453 41.704844-34.002418 36.129872-97.092315-19.929912-121.397884-32.140001-13.951757-62.953797-7.706519-89.649809 15.668865-48.882314 42.769083-97.495498 85.673242-145.978722 128.443347-4.782933 4.114714-9.162684 6.110161-15.677051 6.110161-29.884634-0.265036-59.769268 0-89.653903-0.265036-5.442966 0-7.834432 0.933255-7.834432 7.30436 0.132006 142.261051 0.132006 284.782022 0 427.301969 0 5.316076 1.331321 6.77531 6.771217 6.77531 31.079856-0.134053 62.294788 0 93.375667-0.134053 5.579065 0 10.492982 1.062192 15.278985 3.586688 22.181185 12.084223 44.3593 23.906479 66.675562 35.858696 4.115738 2.25946 8.236592 3.191692 13.019525 3.191692 78.765925 0 157.396773 0 235.892545 0 8.635681 0 16.741289-1.331321 24.974811-3.456728 41.173748-9.962909 56.050574-41.439808 53.92619-71.856561-1.063215-13.282514-5.974062-25.105794-13.947663-35.862789 27.501354-7.834432 49.148373-22.183232 58.976206-49.27731 9.962909-27.898397 2.25946-52.467979-17.798365-72.922846 39.45357-26.962072 48.878221-60.968583 26.170033-103.341646 41.170678 0 156.452261 0 196.698894 0 9.165754 0 18.201547-0.795109 27.099195-3.584642C922.191778 474.150974 945.831174 428.989401 927.371754 389.805984L927.371754 389.805984zM186.87669 744.849232c0 6.376221-1.591241 7.968485-7.835456 7.835456-16.470113-0.399089-33.203216-0.26606-49.806359 0-4.786003 0.13303-5.846148-1.194198-5.846148-5.978155 0.132006-121.80209 0.132006-243.60418 0-365.268124 0-4.915963 1.192152-6.374174 6.245238-6.247284 16.865109 0.265036 33.734312 0.265036 50.603515 0 5.447059-0.12689 6.639211 1.464351 6.639211 6.779404-0.132006 60.567447-0.132006 120.999818-0.132006 181.571359C186.744683 623.843274 186.481693 684.410722 186.87669 744.849232L186.87669 744.849232zM900.410706 414.909731c-1.727341 16.467043-17.536398 32.405037-36.134988 35.858696-5.0449 0.934279-10.086729 1.199315-15.139815 1.199315-60.169381 0.13303-195.371666 0.13303-255.547187-0.137123-6.376221 0-8.894577 1.596358-7.834432 7.971555 0.130983 0.928139 0 1.988284 0 3.054569 0 6.375198-1.723248 13.415544 0.398066 18.996656 2.391467 6.109138 11.162224 3.053546 16.737196 5.706979 6.241145 2.927679 12.485359 5.983271 17.531282 10.758018 19.523659 18.331507 15.274892 47.289026-8.632611 61.23362-10.892071 6.245238-22.714328 7.438413-34.802644 6.641257-5.842055-0.26606-8.762571 1.062192-7.568373 7.438413 0.132006 1.197268 0 2.661619 0 3.855818 0 6.371104-1.598404 13.281491 0.394996 18.99461 2.526543 6.641257 11.030218 2.791579 16.606213 5.441942 6.906294 3.586688 13.812587 6.640234 19.12457 12.486382 26.302039 28.294416 1.064238 59.905368-23.376407 64.949244-13.677511 2.927679-27.366278 0.933255-41.178865 1.597381-6.109138 0.26606-13.94357-2.657526-17.530258 1.066285-3.850701 3.712555-0.793062 11.685133-1.192152 17.664312 0 0.265036 0 0.397043 0 0.795109 0 11.955286 0 11.69025 11.286044 14.607696 9.830903 2.39249 18.86158 6.906294 25.504884 14.614859 8.634658 10.093892 13.680581 21.784142 8.634658 35.195593-5.846148 16.071024-17.801435 25.767873-34.402531 29.226648-4.383844 0.923022-9.03477 1.193175-13.681604 1.327228-75.315336 0-150.621463 0-225.933729 0.132006-4.386914 0-8.372691-0.927115-12.221346-3.188622-18.996656-11.425214-37.990243-22.844288-57.114812-34.001395-3.987824-2.25946-5.711072-4.652973-5.711072-9.43079 0.132006-126.851083 0.132006-253.704213 0-380.682185 0-3.983731 0.662079-7.0383 3.982708-9.960863 49.279357-43.169195 98.559736-86.735433 147.70504-130.035612 16.868179-14.872732 36.128849-17.271362 56.317657-9.695826 29.752628 11.160177 35.730783 43.830251 12.087293 65.085344-27.89635 25.100678-56.054667 49.810453-84.214007 74.646094-3.849678 3.584642-7.834432 7.043417-13.413498 12.220323 25.767873 0 49.010227 0 72.389704 0 120.601752 0 315.719638 0 436.32139 0 7.706519 0 15.143908 0.796132 22.580275 3.851725C891.240859 381.831358 902.264936 397.638369 900.410706 414.909731L900.410706 414.909731z" fill="#262435" p-id="4320"></path></svg>