<svg t="1701757030213" class="icon" viewBox="0 0 1024 1024" version="1.1" xmlns="http://www.w3.org/2000/svg" p-id="6845" width="32" height="32"><path d="M264.41728 288.68608c0-33.28 28.01664-66.80576 90.624-66.80576h321.45408c62.60736 0 90.60352 33.60768 90.60352 66.80576v433.11104H264.41728V288.68608z" p-id="6846"></path><path d="M849.94048 746.61888c0 20.7872-5.26336 31.29344-15.60576 31.29344h-62.62784v29.83936c-0.08192 3.85024-1.6384 12.9024-14.21312 12.9024H274.0224c-12.57472 0-14.1312-9.03168-14.21312-12.82048v-29.81888H197.20192c-10.36288 0-15.62624-10.5472-15.62624-31.31392V359.85408c0-15.95392 5.4272-18.49344 18.49344-18.49344h48.98816v395.89888h533.58592V341.36064h48.90624c13.06624 0 18.47296 2.53952 18.47296 18.49344l-0.08192 386.7648z" p-id="6847"></path></svg>