<svg t="1701757005550" class="icon" viewBox="0 0 1024 1024" version="1.1" xmlns="http://www.w3.org/2000/svg" p-id="6630" width="32" height="32"><path d="M831.46752 324.25984h-47.32928v-35.57376c0-40.42752-33.71008-83.88608-107.74528-83.88608H355.04128c-74.0352 0-107.7248 43.47904-107.7248 83.88608v35.57376H199.9872c-23.90016 0-35.57376 11.6736-35.57376 35.59424V746.7008c0 42.06592 20.45952 48.31232 32.70656 48.31232h45.52704v12.82048c0 1.29024 0.24576 12.82048 8.78592 21.44256 3.85024 3.85024 10.83392 8.45824 22.50752 8.45824h483.55328c11.59168 0 18.65728-4.608 22.528-8.45824 8.56064-8.54016 8.8064-20.13184 8.8064-21.36064v-12.82048h45.52704c12.24704 0 32.68608-6.3488 32.68608-48.31232V359.85408c-0.02048-24.00256-11.65312-35.59424-35.57376-35.59424z m-567.05024-35.57376c0-33.28 28.01664-66.80576 90.624-66.80576h321.45408c62.60736 0 90.60352 33.60768 90.60352 66.80576v433.11104H264.41728V288.68608z m585.5232 457.9328c0 20.7872-5.26336 31.29344-15.60576 31.29344h-62.62784v29.83936c-0.08192 3.85024-1.6384 12.9024-14.21312 12.9024H274.0224c-12.57472 0-14.1312-9.03168-14.21312-12.82048v-29.81888H197.20192c-10.36288 0-15.62624-10.5472-15.62624-31.31392V359.85408c0-15.95392 5.4272-18.49344 18.49344-18.49344h48.98816v395.89888h533.58592V341.36064h48.90624c13.06624 0 18.47296 2.53952 18.47296 18.49344l-0.08192 386.7648z m0 0" p-id="6631"></path></svg>